<svg xmlns="http://www.w3.org/2000/svg" width="121" height="68" viewBox="0 0 121 68"><style>.st0,.st3{fill:#3e2b2e}.st3{opacity:.5;enable-background:new}</style><path class="st0" d="M96.6 15.6c0 6.5-5.2 11.7-11.7 11.7s-11.7-5.2-11.7-11.7S78.4 3.9 84.9 3.9c6.5 0 11.7 5.2 11.7 11.7"/><path fill="#daef5e" d="M63.7 0h21.2v68H63.7z"/><path class="st0" d="M71.1 34c0 6.5-5.2 11.7-11.7 11.7S47.7 40.5 47.7 34s5.2-11.7 11.7-11.7S71.1 27.6 71.1 34M24.4 48.5c0 6.5-5.2 11.7-11.7 11.7C6.2 60.1 1 54.9 1 48.5s5.2-11.7 11.7-11.7S24.4 42 24.4 48.5"/><path fill="#ff532e" d="M12.7 0h21.2v68H12.7z"/><path class="st3" d="M24.4 48.5c0 6.5-5.2 11.7-11.7 11.7C6.2 60.1 1 54.9 1 48.5s5.2-11.7 11.7-11.7S24.4 42 24.4 48.5"/><path fill="#26cad3" d="M38.2 0h21.2v68H38.2z"/><path class="st3" d="M71.1 34c0 6.5-5.2 11.7-11.7 11.7S47.7 40.5 47.7 34s5.2-11.7 11.7-11.7S71.1 27.6 71.1 34M96.6 15.6c0 6.5-5.2 11.7-11.7 11.7s-11.7-5.2-11.7-11.7S78.4 3.9 84.9 3.9c6.5 0 11.7 5.2 11.7 11.7"/><path d="M92.3 52.7h6.6V63c0 3.2-2.3 4.7-4.7 4.7-2.3 0-4.6-1.4-4.6-4.7v-.9h2.8v.8c0 2 1.3 2.2 1.8 2.2S96 64.9 96 63v-7.8h-3.8l.1-2.5zm9.3 14.8h2.8v-5.9h4.8v-2.5h-4.8v-3.9h5.7v-2.5h-8.6l.1 14.8zM121 55.2v-2.5h-8.6v14.8h2.8v-5.9h4.8v-2.5h-4.8v-3.9h5.8z" fill="#222"/></svg>
